{"title":"Time Barbarians (1990) DVDRip-AVC","uid":11762794,"size":1556295201,"categoryP":"video","categoryS":"movies","magnet":"?xt=urn:btih:29f7c5ed76679974ecb3888cbcac720d8e679451&amp;dn=Time+Barbarians+%281990%29+DVDRip-AVC&amp;tr=udp%3A%2F%2Ftracker.openbittorrent.com%3A80&amp;tr=udp%3A%2F%2Fopen.demonii.com%3A1337&amp;tr=udp%3A%2F%2Ftracker.coppersurfer.tk%3A6969&amp;tr=udp%3A%2F%2Fexodus.desync.com%3A6969","seeders":8,"leechers":0,"uploader":"yfjfrj","files":1,"time":1426632809,"description":"Time Barbarians (1990) DVDRip-AVC\n\nMI:\nGeneral\nUnique ID                                : 249494439568305979652871030570216256274 (0xBBB2E197209DAF948AD971C04FCEF312)\nFormat                                   : Matroska\nFormat version                           : Version 4 / Version 2\nFile size                                : 1.45 GiB\nDuration                                 : 1h 38mn\nOverall bit rate                         : 2 101 Kbps\nEncoded date                             : UTC 2015-03-17 18:58:46\nWriting application                      : mkvmerge v7.7.0 ('Six Voices') 64bit built on Feb 28 2015 23:39:33\nWriting library                          : libebml v1.3.1 + libmatroska v1.4.2\n_STATISTICS_WRITING_APP                  : mkvmerge v7.7.0 ('Six Voices') 64bit built on Feb 28 2015 23:39:33\n_STATISTICS_WRITING_DATE_UTC             : 2015-03-17 18:58:46\n_STATISTICS_TAGS                         : BPS DURATION NUMBER_OF_FRAMES NUMBER_OF_BYTES\nDURATION                                 : 01:36:30.432000000\nNUMBER_OF_FRAMES                         : 180951\nNUMBER_OF_BYTES                          : 162132096\n\nVideo\nID                                       : 1\nFormat                                   : AVC\nFormat/Info                              : Advanced Video Codec\nFormat profile                           : &lt;a class=&quot;__cf_email__&quot; href=&quot;/cdn-cgi/l/email-protection&quot; data-cfemail=&quot;024a6b656a424e362c32&quot;&gt;[email&amp;#160;protected]&lt;/a&gt;&lt;script cf-hash='f9e31' type=&quot;text/javascript&quot;&gt;\n/* &lt;![CDATA[ */!function(){try{var t=&quot;currentScript&quot;in document?document.currentScript:function(){for(var t=document.getElementsByTagName(&quot;script&quot;),e=t.length;e--;)if(t[e].getAttribute(&quot;cf-hash&quot;))return t[e]}();if(t&amp;&amp;t.previousSibling){var e,r,n,i,c=t.previousSibling,a=c.getAttribute(&quot;data-cfemail&quot;);if(a){for(e=&quot;&quot;,r=parseInt(a.substr(0,2),16),n=2;a.length-n;n+=2)i=parseInt(a.substr(n,2),16)^r,e+=String.fromCharCode(i);e=document.createTextNode(e),c.parentNode.replaceChild(e,c)}}}catch(u){}}();/* ]]&gt; */&lt;/script&gt;\nFormat settings, CABAC                   : Yes\nFormat settings, ReFrames                : 16 frames\nCodec ID                                 : V_MPEG4/ISO/AVC\nDuration                                 : 1h 38mn\nBit rate                                 : 1 687 Kbps\nWidth                                    : 696 pixels\nHeight                                   : 480 pixels\nDisplay aspect ratio                     : 4:3\nFrame rate mode                          : Constant\nFrame rate                               : 23.976 fps\nColor space                              : YUV\nChroma subsampling                       : 4:2:0\nBit depth                                : 8 bits\nScan type                                : Progressive\nBits/(Pixel*Frame)                       : 0.211\nStream size                              : 1.13 GiB (78%)\nWriting library                          : x264 core 142 r2431 ac76440\nEncoding settings                        : cabac=1 / ref=16 / deblock=1:0:0 / analyse=0x3:0x133 / me=umh / subme=10 / psy=1 / psy_rd=1.00:0.00 / mixed_ref=1 / me_range=24 / chroma_me=1 / trellis=2 / 8x8dct=1 / cqm=0 / deadzone=21,11 / fast_pskip=1 / chroma_qp_offset=-2 / threads=6 / lookahead_threads=1 / sliced_threads=0 / nr=0 / decimate=1 / interlaced=0 / bluray_compat=0 / constrained_intra=0 / bframes=8 / b_pyramid=2 / b_adapt=2 / b_bias=0 / direct=3 / weightb=1 / open_gop=0 / weightp=2 / keyint=240 / keyint_min=23 / scenecut=40 / intra_refresh=0 / rc_lookahead=60 / rc=2pass / mbtree=1 / bitrate=1687 / ratetol=1.0 / qcomp=0.60 / qpmin=0 / qpmax=69 / qpstep=4 / cplxblur=20.0 / qblur=0.5 / ip_ratio=1.40 / aq=1:1.00\nDefault                                  : Yes\nForced                                   : No\n\nAudio #1\nID                                       : 2\nFormat                                   : AC-3\nFormat/Info                              : Audio Coding 3\nMode extension                           : CM (complete main)\nFormat settings, Endianness              : Big\nCodec ID                                 : A_AC3\nDuration                                 : 1h 38mn\nBit rate mode                            : Constant\nBit rate                                 : 192 Kbps\nChannel(s)                               : 2 channels\nChannel positions                        : Front: L R\nSampling rate                            : 48.0 KHz\nBit depth                                : 16 bits\nCompression mode                         : Lossy\nStream size                              : 136 MiB (9%)\nDefault                                  : Yes\nForced                                   : No\n\nAudio #2\nID                                       : 3\nFormat                                   : AC-3\nFormat/Info                              : Audio Coding 3\nMode extension                           : CM (complete main)\nFormat settings, Endianness              : Big\nCodec ID                                 : A_AC3\nDuration                                 : 1h 38mn\nBit rate mode                            : Constant\nBit rate                                 : 224 Kbps\nChannel(s)                               : 2 channels\nChannel positions                        : Front: L R\nSampling rate                            : 48.0 KHz\nBit depth                                : 16 bits\nCompression mode                         : Lossy\nStream size                              : 158 MiB (11%)\nDefault                                  : No\nForced                                   : No\n\nlog h.264:\n[Information] [17.03.2015 15:00:28] Standard error stream\n-[Information] [17.03.2015 15:00:46] raw [info]: 696x480p 10:11 @ 24000/1001 fps (cfr)\n-[Information] [17.03.2015 15:00:46] x264 [info]: using SAR=10/11\n-[Information] [17.03.2015 15:00:46] x264 [info]: using cpu capabilities: MMX2 SSE2Fast SSSE3 SSE4.2 AVX\n-[Information] [17.03.2015 15:00:46] x264 [info]: profile High, level 4.0\n-[Information] [17.03.2015 20:29:06] x264 [info]: frame I:896 Avg QP:16.96 size: 42471\n-[Information] [17.03.2015 20:29:06] x264 [info]: frame P:31497 Avg QP:19.33 size: 18685\n-[Information] [17.03.2015 20:29:06] x264 [info]: frame B:109711 Avg QP:22.17 size: 5682\n-[Information] [17.03.2015 20:29:06] x264 [info]: consecutive B-frames: 1.3% 2.5% 7.1% 27.3% 28.8% 25.0% 5.1% 1.9% 0.9%\n-[Information] [17.03.2015 20:29:06] x264 [info]: mb I I16..4: 6.7% 79.3% 14.0%\n-[Information] [17.03.2015 20:29:06] x264 [info]: mb P I16..4: 4.3% 19.2% 1.7% P16..4: 39.7% 21.1% 11.9% 0.3% 0.1% skip: 1.6%\n-[Information] [17.03.2015 20:29:06] x264 [info]: mb B I16..4: 0.4% 2.1% 0.2% B16..8: 45.4% 10.1% 2.2% direct: 8.4% skip:31.1% L0:41.8% L1:48.2% BI:10.0%\n-[Information] [17.03.2015 20:29:06] x264 [info]: 8x8 transform intra:76.5% inter:70.2%\n-[Information] [17.03.2015 20:29:06] x264 [info]: direct mvs spatial:97.3% temporal:2.7%\n-[Information] [17.03.2015 20:29:06] x264 [info]: coded y,uvDC,uvAC intra: 77.7% 85.1% 47.6% inter: 31.6% 30.0% 4.2%\n-[Information] [17.03.2015 20:29:06] x264 [info]: i16 v,h,dc,p: 68% 10% 5% 16%\n-[Information] [17.03.2015 20:29:06] x264 [info]: i8 v,h,dc,ddl,ddr,vr,hd,vl,hu: 8% 11% 7% 8% 13% 13% 14% 11% 15%\n-[Information] [17.03.2015 20:29:06] x264 [info]: i4 v,h,dc,ddl,ddr,vr,hd,vl,hu: 7% 11% 5% 8% 13% 13% 16% 11% 16%\n-[Information] [17.03.2015 20:29:06] x264 [info]: i8c dc,h,v,p: 34% 29% 19% 17%\n-[Information] [17.03.2015 20:29:06] x264 [info]: Weighted P-Frames: Y:7.5% UV:4.4%\n-[Information] [17.03.2015 20:29:06] x264 [info]: ref P L0: 41.3% 11.1% 19.2% 6.2% 5.1% 3.2% 3.3% 1.6% 1.7% 1.3% 1.4% 1.0% 1.1% 0.9% 1.0% 0.7%\n-[Information] [17.03.2015 20:29:06] x264 [info]: ref B L0: 79.9% 10.1% 3.0% 1.8% 1.1% 1.0% 0.7% 0.4% 0.4% 0.4% 0.3% 0.3% 0.3% 0.2% 0.1%\n-[Information] [17.03.2015 20:29:06] x264 [info]: ref B L1: 95.2% 4.8%\n-[Information] [17.03.2015 20:29:06] x264 [info]: kb/s:1687.13\n-[Information] [17.03.2015 20:29:06] encoded 142104 frames, 7.21 fps, 1687.13 kb/s \n\nScreens: &lt;a href=&quot;\nhttp://i1.imageban.ru/out/2015/03/17/bc505952e7b5f612a78a7b32b3332639.jpg&quot; rel=&quot;nofollow&quot; target=&quot;_NEW&quot;&gt;\nhttp://i1.imageban.ru/out/2015/03/17/bc505952e7b5f612a78a7b32b3332639.jpg&lt;/a&gt; &lt;a href=&quot;\nhttp://i4.imageban.ru/out/2015/03/17/30af462c4d40b6fab69dc0f5d38319a2.jpg&quot; rel=&quot;nofollow&quot; target=&quot;_NEW&quot;&gt;\nhttp://i4.imageban.ru/out/2015/03/17/30af462c4d40b6fab69dc0f5d38319a2.jpg&lt;/a&gt; &lt;a href=&quot;\nhttp://i4.imageban.ru/out/2015/03/17/c9d9bf04d45d118d0ee6d7dfd5b3b96d.jpg&quot; rel=&quot;nofollow&quot; target=&quot;_NEW&quot;&gt;\nhttp://i4.imageban.ru/out/2015/03/17/c9d9bf04d45d118d0ee6d7dfd5b3b96d.jpg&lt;/a&gt; &lt;a href=&quot;\nhttp://i5.imageban.ru/out/2015/03/17/a3e8742c2d4c002b451517475a4b62c4.jpg&quot; rel=&quot;nofollow&quot; target=&quot;_NEW&quot;&gt;\nhttp://i5.imageban.ru/out/2015/03/17/a3e8742c2d4c002b451517475a4b62c4.jpg&lt;/a&gt;","torrent":{"xt":"urn:btih:29f7c5ed76679974ecb3888cbcac720d8e679451","amp;dn":"Time+Barbarians+%281990%29+DVDRip-AVC","amp;tr":["udp%3A%2F%2Ftracker.openbittorrent.com%3A80","udp%3A%2F%2Fopen.demonii.com%3A1337","udp%3A%2F%2Ftracker.coppersurfer.tk%3A6969","udp%3A%2F%2Fexodus.desync.com%3A6969"],"infoHash":"29f7c5ed76679974ecb3888cbcac720d8e679451","infoHashBuffer":{"type":"Buffer","data":[41,247,197,237,118,103,153,116,236,179,136,140,188,172,114,13,142,103,148,81]},"announce":[],"urlList":[]}}